<?xml version="1.0" standalone="no"?>
<!DOCTYPE svg PUBLIC "-//W3C//DTD SVG 20010904//EN"
 "http://www.w3.org/TR/2001/REC-SVG-20010904/DTD/svg10.dtd">
<svg version="1.0" xmlns="http://www.w3.org/2000/svg"
 width="350.000000pt" height="115.000000pt" viewBox="0 0 350.000000 115.000000"
 preserveAspectRatio="xMidYMid meet">
<metadata>
Created by potrace 1.15, written by Peter Selinger 2001-2017
</metadata>
<g transform="translate(0.000000,115.000000) scale(0.100000,-0.100000)"
fill="#000000" stroke="none">
<path d="M290 961 c-64 -26 -115 -53 -115 -60 0 -10 220 -111 241 -111 10 0 2
38 -11 56 -8 10 -15 21 -15 24 0 3 273 4 606 2 605 -2 607 -2 589 -22 -18 -20
-17 -20 38 -20 53 0 56 -1 62 -30 4 -16 10 -30 15 -30 5 0 11 14 15 30 6 28 9
30 56 30 50 0 58 7 37 28 -9 9 121 12 588 12 331 0 604 -3 607 -6 4 -4 -2 -19
-13 -34 -20 -28 -26 -50 -14 -50 4 0 60 21 125 47 86 33 119 51 119 63 0 12
-31 29 -107 59 -60 24 -114 45 -120 48 -18 7 -16 -28 3 -55 l15 -22 -626 0
-625 0 14 34 c22 53 5 61 -43 20 l-31 -26 -31 26 c-48 40 -61 30 -39 -29 l10
-26 -625 1 c-344 1 -625 4 -625 6 0 3 9 17 20 31 23 29 26 53 8 52 -7 0 -65
-22 -128 -48z"/>
<path d="M537 812 c-10 -11 -21 -60 -31 -142 -9 -69 -20 -150 -26 -179 -14
-74 -15 -70 36 -92 68 -30 149 -13 201 43 32 34 63 108 63 152 0 49 -32 118
-71 150 -24 20 -141 86 -153 86 -1 0 -10 -8 -19 -18z m100 -109 c80 -47 103
-115 62 -183 -31 -50 -48 -59 -108 -60 l-54 0 7 58 c14 124 30 212 38 212 5 0
30 -12 55 -27z"/>
<path d="M1960 808 c-5 -13 -20 -88 -34 -168 -36 -217 -36 -217 -20 -231 22
-18 41 5 49 59 12 88 13 89 57 95 77 10 138 79 138 154 0 38 -6 51 -34 79 -31
31 -40 34 -90 34 -49 0 -58 -3 -66 -22z"/>
<path d="M2436 678 c-18 -81 -36 -201 -36 -236 0 -35 3 -42 20 -42 24 0 40 28
40 72 1 42 30 106 64 137 35 33 46 19 36 -44 -15 -85 -12 -165 5 -171 33 -13
42 14 50 142 6 112 5 127 -11 145 -22 24 -41 24 -81 0 -31 -19 -31 -19 -36 0
-7 27 -45 25 -51 -3z"/>
<path d="M2755 690 c-56 -22 -115 -119 -115 -189 0 -52 22 -87 63 -100 55 -19
137 18 137 60 0 27 -16 32 -49 14 -43 -22 -68 -19 -87 10 -16 24 -15 28 11 80
30 62 59 77 96 51 26 -18 49 -6 49 25 0 32 -68 64 -105 49z"/>
<path d="M850 666 c-5 -14 -16 -73 -25 -132 -14 -95 -14 -109 -1 -122 24 -24
44 1 52 66 3 31 12 86 19 122 6 36 10 71 8 78 -8 21 -43 13 -53 -12z"/>
<path d="M1008 673 c-70 -44 -105 -197 -56 -243 29 -26 59 -34 110 -27 44 6
88 40 88 69 0 22 -18 23 -56 3 -36 -19 -65 -19 -90 -1 -23 17 -25 15 64 60 77
39 99 66 89 109 -12 45 -97 62 -149 30z"/>
<path d="M1310 678 c-72 -20 -120 -92 -120 -178 0 -65 28 -100 79 -100 20 0
43 6 50 13 11 10 12 7 6 -18 -13 -58 10 -55 -496 -55 -258 0 -469 3 -469 8 0
4 9 18 20 32 20 26 26 50 12 50 -26 0 -247 -98 -247 -110 0 -8 49 -33 119 -62
66 -26 121 -48 123 -48 9 0 1 39 -13 58 l-15 22 400 0 c292 0 400 -3 403 -12
7 -19 111 -22 146 -4 40 21 297 24 289 4 -24 -66 -12 -82 34 -44 32 27 51 25
79 -8 19 -24 44 -21 36 4 -20 67 -89 60 596 60 338 0 618 -3 621 -6 3 -4 -3
-18 -13 -32 -19 -23 -27 -52 -14 -52 3 0 59 21 125 46 150 59 152 68 33 115
-83 32 -86 33 -58 42 16 5 39 19 52 30 43 39 19 70 -34 42 -36 -19 -65 -19
-90 -1 -23 17 -26 14 63 60 74 39 101 74 89 114 -12 38 -96 55 -143 29 -36
-20 -71 -76 -84 -131 -9 -43 -9 -58 4 -89 9 -20 20 -37 25 -37 6 0 19 -18 30
-40 l19 -40 -606 0 c-506 1 -603 3 -588 14 27 21 21 26 -31 26 -44 0 -50 3
-63 32 l-15 31 -13 -31 c-13 -30 -17 -32 -64 -32 -49 0 -50 0 -32 -20 18 -20
17 -20 -84 -20 -93 0 -102 2 -97 18 15 51 56 250 56 273 0 40 -60 64 -120 47z"/>
<path d="M1544 680 c-12 -4 -35 -25 -52 -45 -79 -96 -54 -239 42 -239 49 0 85
29 113 91 56 122 -3 234 -103 193z"/>
<path d="M2230 668 c-94 -64 -108 -232 -22 -267 75 -31 162 60 162 169 0 109
-61 151 -140 98z"/>
</g>
</svg>
